<svg width="300" height="380" viewBox="0 0 300 380" xmlns="http://www.w3.org/2000/svg">
  <title>Default Article Placeholder</title>
  <defs>
    <style>
      .bg { fill: #ffffff; stroke: #e5e7eb; stroke-width: 1; }
      .placeholder-img { fill: #f3f4f6; }
      .icon { fill: #d1d5db; }
      .text-line { fill: #e5e7eb; }
      .title-line { fill: #d1d5db; }
    </style>
  </defs>

  <rect x="0.5" y="0.5" width="299" height="379" rx="12" class="bg"/>

  <path d="M1 13 H299 V180 H1 V13 Z" class="placeholder-img" />
  <path d="M1 13 Q1 1 13 1 H287 Q299 1 299 13 V20 H1 Z" class="placeholder-img" /> <g transform="translate(110, 80)">
    <circle cx="60" cy="15" r="8" class="icon" opacity="0.8"/>
    <path d="M0 40 L25 15 L50 40 Z" class="icon" />
    <path d="M35 40 L55 20 L75 40 Z" class="icon" />
    <rect x="-10" y="40" width="100" height="2" class="icon" />
  </g>

  <g transform="translate(20, 210)">
    <rect x="0" y="0" width="180" height="24" rx="4" class="title-line" />
    
    <rect x="0" y="45" width="260" height="12" rx="2" class="text-line" />
    <rect x="0" y="70" width="240" height="12" rx="2" class="text-line" />
    <rect x="0" y="95" width="160" height="12" rx="2" class="text-line" />
    
    <rect x="0" y="130" width="80" height="10" rx="2" class="text-line" opacity="0.6" />
    <circle cx="250" cy="135" r="12" class="text-line" opacity="0.5" /> </g>
</svg>