<svg width="600" height="400" xmlns="http://www.w3.org/2000/svg"><defs><radialGradient id="prefix__a" cx="50%" cy="50%" r="70%"><stop offset="0%" stop-color="#1a2a6c"/><stop offset="100%" stop-color="#0f172a"/></radialGradient><linearGradient id="prefix__c" x1="0%" y1="0%" x2="100%" y2="100%"><stop offset="0%" stop-color="#00f2fe"/><stop offset="100%" stop-color="#4facfe"/></linearGradient><filter id="prefix__b"><feGaussianBlur stdDeviation="2.5" result="coloredBlur"/><feMerge><feMergeNode in="coloredBlur"/><feMergeNode in="SourceGraphic"/></feMerge></filter><circle id="prefix__d" r="8" fill="#00f2fe" opacity=".8"/></defs><rect width="100%" height="100%" fill="url(#prefix__a)"/><g stroke="#4facfe" stroke-width="1.5" opacity=".4" filter="url(#prefix__b)"><path d="M300 200L150 100M300 200l150-100M300 200l-200 50M300 200l200 50M300 200v150"/><path opacity=".5" d="M150 100h300M150 100l-50 150M450 100l50 150"/></g><g transform="translate(300 200)"><circle r="70" fill="none" stroke="url(#prefix__c)" stroke-width="3" opacity=".6" filter="url(#prefix__b)"><animateTransform attributeName="transform" type="rotate" from="0 0 0" to="360 0 0" dur="20s" repeatCount="indefinite"/></circle><path fill="url(#prefix__c)" opacity=".9" filter="url(#prefix__b)" d="M0-50l43.3 25v50L0 50l-43.3-25v-50z"/><path d="M-20-10c10-20 30-20 40 0S10 30-20 10M0-20v40M-15 0h30" stroke="#fff" stroke-width="2" fill="none" opacity=".8" stroke-linecap="round"/><text y="5" font-family="Arial, sans-serif" font-size="14" font-weight="bold" fill="#1a2a6c" text-anchor="middle">LLM CORE</text></g><g filter="url(#prefix__b)"><use href="#prefix__d" x="150" y="100"/><use href="#prefix__d" x="450" y="100"/><use href="#prefix__d" x="100" y="250"/><use href="#prefix__d" x="500" y="250"/><use href="#prefix__d" x="300" y="350"/><text x="150" y="105" font-family="Arial" font-size="10" fill="#1a2a6c" text-anchor="middle">Aa</text><text x="450" y="105" font-family="Arial" font-size="9" fill="#1a2a6c" text-anchor="middle">{}</text></g><circle r="4" fill="#fff" filter="url(#prefix__b)"><animateMotion path="M150,100 L300,200" dur="3s" repeatCount="indefinite"/></circle><circle r="4" fill="#fff" filter="url(#prefix__b)" opacity=".8"><animateMotion path="M500,250 L300,200" dur="4s" begin="1s" repeatCount="indefinite"/></circle></svg>